HIERARCHY
ROOT Hips
{
	OFFSET 0.000000 71.427986 0.000000
	CHANNELS 6 Xposition Yposition Zposition Xrotation Yrotation Zrotation
	JOINT Pelvis
	{
		OFFSET 0.000000 0.000000 0.000000
		CHANNELS 3 Xrotation Yrotation Zrotation
		JOINT LeftUpLeg
		{
			OFFSET 6.797100 -2.508499 -1.318700
			CHANNELS 3 Xrotation Yrotation Zrotation
			JOINT LeftLeg
			{
				OFFSET 0.069008 -29.241863 0.690200
				CHANNELS 3 Xrotation Yrotation Zrotation
				JOINT LeftFoot
				{
					OFFSET -0.069008 -29.568123 -0.266800
					CHANNELS 3 Xrotation Yrotation Zrotation
					JOINT LeftToeBase
					{
						OFFSET 3.145500 -8.631000 16.059900
						CHANNELS 3 Xrotation Yrotation Zrotation
						End Site
						{
							OFFSET 0.000000 18.501587 0.000000
						}
					}
				}
			}
			JOINT Left_ShortSleeve
			{
				OFFSET 0.265923 -10.480953 1.153800
				CHANNELS 3 Xrotation Yrotation Zrotation
				End Site
				{
					OFFSET 1.725763 19.823879 0.000000
				}
			}
		}
		JOINT RightUpLeg
		{
			OFFSET -6.797100 -2.508499 -1.318700
			CHANNELS 3 Xrotation Yrotation Zrotation
			JOINT RightLeg
			{
				OFFSET -0.082453 -29.241932 0.688000
				CHANNELS 3 Xrotation Yrotation Zrotation
				JOINT RightFoot
				{
					OFFSET 0.082453 -29.568058 -0.264600
					CHANNELS 3 Xrotation Yrotation Zrotation
					JOINT RightToeBase
					{
						OFFSET -3.115300 -8.682800 16.113400
						CHANNELS 3 Xrotation Yrotation Zrotation
						End Site
						{
							OFFSET 0.000000 18.567114 0.000000
						}
					}
				}
			}
			JOINT Right_ShortSleeve
			{
				OFFSET -0.265923 -10.480953 1.153800
				CHANNELS 3 Xrotation Yrotation Zrotation
				End Site
				{
					OFFSET -1.725766 19.823910 0.000000
				}
			}
		}
	}
	JOINT Spine
	{
		OFFSET 0.000000 13.368103 0.470500
		CHANNELS 3 Xrotation Yrotation Zrotation
		JOINT Spine1
		{
			OFFSET 0.147000 13.837402 0.538800
			CHANNELS 3 Xrotation Yrotation Zrotation
			JOINT Spine2
			{
				OFFSET 0.168000 16.242897 -1.435500
				CHANNELS 3 Xrotation Yrotation Zrotation
				JOINT Neck
				{
					OFFSET 0.217200 18.631500 -1.679100
					CHANNELS 3 Xrotation Yrotation Zrotation
					JOINT Head
					{
						OFFSET 0.000000 6.599396 1.385900
						CHANNELS 3 Xrotation Yrotation Zrotation
						JOINT Hat
						{
							OFFSET -0.532200 27.220596 -10.096100
							CHANNELS 3 Xrotation Yrotation Zrotation
							End Site
							{
								OFFSET 0.000000 22.029861 0.000000
							}
						}
						JOINT HairD
						{
							OFFSET -10.777400 17.437393 -1.325900
							CHANNELS 3 Xrotation Yrotation Zrotation
							JOINT HairD1
							{
								OFFSET -3.290299 -11.051193 1.062200
								CHANNELS 3 Xrotation Yrotation Zrotation
								End Site
								{
									OFFSET 0.000000 11.579437 0.000000
								}
							}
						}
						JOINT HairB
						{
							OFFSET -10.777400 17.437393 1.467900
							CHANNELS 3 Xrotation Yrotation Zrotation
							JOINT HairB1
							{
								OFFSET -1.561200 -12.956299 3.590200
								CHANNELS 3 Xrotation Yrotation Zrotation
								End Site
								{
									OFFSET 0.000000 13.534866 0.000000
								}
							}
						}
						JOINT HairA
						{
							OFFSET 9.713100 17.437393 1.467900
							CHANNELS 3 Xrotation Yrotation Zrotation
							JOINT HairA1
							{
								OFFSET 1.561200 -12.956299 3.590200
								CHANNELS 3 Xrotation Yrotation Zrotation
								End Site
								{
									OFFSET 0.000000 13.534866 0.000000
								}
							}
						}
						JOINT HairC
						{
							OFFSET 9.713100 17.437393 -1.325900
							CHANNELS 3 Xrotation Yrotation Zrotation
							JOINT HairC1
							{
								OFFSET 3.290300 -11.051193 1.062200
								CHANNELS 3 Xrotation Yrotation Zrotation
								End Site
								{
									OFFSET 0.000000 11.579437 0.000000
								}
							}
						}
					}
				}
				JOINT LeftShoulder
				{
					OFFSET 5.101800 15.108002 -2.763700
					CHANNELS 3 Xrotation Yrotation Zrotation
					JOINT LeftArm
					{
						OFFSET 9.825497 2.506317 -1.597400
						CHANNELS 3 Xrotation Yrotation Zrotation
						JOINT LeftForeArm
						{
							OFFSET 21.966244 0.000000 0.000000
							CHANNELS 3 Xrotation Yrotation Zrotation
							JOINT LeftHand
							{
								OFFSET 33.879036 0.000000 0.000000
								CHANNELS 3 Xrotation Yrotation Zrotation
								JOINT LeftHandThumb1
								{
									OFFSET 6.715286 -2.359680 3.363841
									CHANNELS 3 Xrotation Yrotation Zrotation
									JOINT LeftHandThumb2
									{
										OFFSET 2.507072 -1.447464 1.447461
										CHANNELS 3 Xrotation Yrotation Zrotation
										JOINT LeftHandThumb3
										{
											OFFSET 2.898338 -1.673355 1.673357
											CHANNELS 3 Xrotation Yrotation Zrotation
											End Site
											{
												OFFSET -0.295959 3.727692 -0.131651
											}
										}
									}
								}
								JOINT LeftHandIndex1
								{
									OFFSET 14.190811 -0.254547 3.840278
									CHANNELS 3 Xrotation Yrotation Zrotation
									JOINT LeftHandIndex2
									{
										OFFSET 3.551727 0.000000 -0.000000
										CHANNELS 3 Xrotation Yrotation Zrotation
										JOINT LeftHandIndex3
										{
											OFFSET 2.894196 0.000000 0.000000
											CHANNELS 3 Xrotation Yrotation Zrotation
											End Site
											{
												OFFSET -1.000603 2.690872 0.366626
											}
										}
									}
								}
								JOINT LeftHandMiddle1
								{
									OFFSET 13.776489 0.000000 0.000000
									CHANNELS 3 Xrotation Yrotation Zrotation
									JOINT LeftHandMiddle2
									{
										OFFSET 3.438232 0.000000 0.000000
										CHANNELS 3 Xrotation Yrotation Zrotation
										JOINT LeftHandMiddle3
										{
											OFFSET 3.691551 0.000000 0.000000
											CHANNELS 3 Xrotation Yrotation Zrotation
											End Site
											{
												OFFSET -1.082298 3.499527 0.457670
											}
										}
									}
								}
								JOINT LeftHandRing1
								{
									OFFSET 13.966164 -0.268127 -3.067488
									CHANNELS 3 Xrotation Yrotation Zrotation
									JOINT LeftHandRing2
									{
										OFFSET 3.162567 0.000000 0.000000
										CHANNELS 3 Xrotation Yrotation Zrotation
										JOINT LeftHandRing3
										{
											OFFSET 3.324348 0.000000 0.000000
											CHANNELS 3 Xrotation Yrotation Zrotation
											End Site
											{
												OFFSET -0.861900 3.184998 0.405154
											}
										}
									}
								}
								JOINT LeftHandPinky1
								{
									OFFSET 13.131393 -0.168503 -5.746925
									CHANNELS 3 Xrotation Yrotation Zrotation
									JOINT LeftHandPinky2
									{
										OFFSET 2.849182 0.000000 0.000000
										CHANNELS 3 Xrotation Yrotation Zrotation
										JOINT LeftHandPinky3
										{
											OFFSET 2.805038 0.000000 0.000000
											CHANNELS 3 Xrotation Yrotation Zrotation
											End Site
											{
												OFFSET -0.882500 2.642609 0.325652
											}
										}
									}
								}
							}
							JOINT Left_Sleeve
							{
								OFFSET 6.592125 -0.646545 0.805568
								CHANNELS 3 Xrotation Yrotation Zrotation
								End Site
								{
									OFFSET -0.000179 20.275787 -0.000000
								}
							}
						}
					}
				}
				JOINT RightShoulder
				{
					OFFSET -5.731700 15.108002 -2.763700
					CHANNELS 3 Xrotation Yrotation Zrotation
					JOINT RightArm
					{
						OFFSET -9.825497 2.506317 -1.597400
						CHANNELS 3 Xrotation Yrotation Zrotation
						JOINT RightForeArm
						{
							OFFSET -21.966242 0.000000 0.000000
							CHANNELS 3 Xrotation Yrotation Zrotation
							JOINT RightHand
							{
								OFFSET -33.879032 0.000000 0.000000
								CHANNELS 3 Xrotation Yrotation Zrotation
								JOINT RightHandThumb1
								{
									OFFSET -6.715286 -2.359680 3.363841
									CHANNELS 3 Xrotation Yrotation Zrotation
									JOINT RightHandThumb2
									{
										OFFSET -2.507072 -1.447464 1.447461
										CHANNELS 3 Xrotation Yrotation Zrotation
										JOINT RightHandThumb3
										{
											OFFSET -2.898338 -1.673355 1.673357
											CHANNELS 3 Xrotation Yrotation Zrotation
											End Site
											{
												OFFSET 0.295959 3.727692 -0.131651
											}
										}
									}
								}
								JOINT RightHandIndex1
								{
									OFFSET -14.190811 -0.254547 3.840278
									CHANNELS 3 Xrotation Yrotation Zrotation
									JOINT RightHandIndex2
									{
										OFFSET -3.551727 0.000000 -0.000000
										CHANNELS 3 Xrotation Yrotation Zrotation
										JOINT RightHandIndex3
										{
											OFFSET -2.894196 0.000000 0.000000
											CHANNELS 3 Xrotation Yrotation Zrotation
											End Site
											{
												OFFSET 1.000603 2.690872 0.366626
											}
										}
									}
								}
								JOINT RightHandMiddle1
								{
									OFFSET -13.776489 0.000000 0.000000
									CHANNELS 3 Xrotation Yrotation Zrotation
									JOINT RightHandMiddle2
									{
										OFFSET -3.438232 0.000000 0.000000
										CHANNELS 3 Xrotation Yrotation Zrotation
										JOINT RightHandMiddle3
										{
											OFFSET -3.691551 0.000000 0.000000
											CHANNELS 3 Xrotation Yrotation Zrotation
											End Site
											{
												OFFSET 1.082298 3.499527 0.457670
											}
										}
									}
								}
								JOINT RightHandRing1
								{
									OFFSET -13.966164 -0.268127 -3.067488
									CHANNELS 3 Xrotation Yrotation Zrotation
									JOINT RightHandRing2
									{
										OFFSET -3.162567 0.000000 0.000000
										CHANNELS 3 Xrotation Yrotation Zrotation
										JOINT RightHandRing3
										{
											OFFSET -3.324348 0.000000 0.000000
											CHANNELS 3 Xrotation Yrotation Zrotation
											End Site
											{
												OFFSET 0.861900 3.184998 0.405154
											}
										}
									}
								}
								JOINT RightHandPinky1
								{
									OFFSET -13.131393 -0.168503 -5.746925
									CHANNELS 3 Xrotation Yrotation Zrotation
									JOINT RightHandPinky2
									{
										OFFSET -2.849182 0.000000 0.000000
										CHANNELS 3 Xrotation Yrotation Zrotation
										JOINT RightHandPinky3
										{
											OFFSET -2.805038 0.000000 0.000000
											CHANNELS 3 Xrotation Yrotation Zrotation
											End Site
											{
												OFFSET 0.882500 2.642609 0.325652
											}
										}
									}
								}
							}
							JOINT Right_Sleeve
							{
								OFFSET -6.592125 -0.646545 0.805568
								CHANNELS 3 Xrotation Yrotation Zrotation
								End Site
								{
									OFFSET 0.000179 20.275787 -0.000000
								}
							}
						}
					}
				}
				JOINT Bind_Right_JacketString
				{
					OFFSET -3.534800 11.969597 7.200700
					CHANNELS 3 Xrotation Yrotation Zrotation
					JOINT Bind_Right_JacketString1
					{
						OFFSET -0.319900 -6.102600 2.794100
						CHANNELS 3 Xrotation Yrotation Zrotation
						End Site
						{
							OFFSET 0.000000 6.719452 0.000000
						}
					}
				}
				JOINT Bind_Left_JacketString
				{
					OFFSET 2.904800 11.969597 7.200700
					CHANNELS 3 Xrotation Yrotation Zrotation
					JOINT Bind_Left_JacketString1
					{
						OFFSET 0.364800 -5.904503 3.186800
						CHANNELS 3 Xrotation Yrotation Zrotation
						End Site
						{
							OFFSET 0.000000 6.719513 0.000000
						}
					}
				}
				JOINT HairE
				{
					OFFSET 5.915200 17.612701 -11.592200
					CHANNELS 3 Xrotation Yrotation Zrotation
					JOINT HairE1
					{
						OFFSET 0.289200 -7.171898 -1.284500
						CHANNELS 3 Xrotation Yrotation Zrotation
						End Site
						{
							OFFSET 0.000000 7.291756 0.000000
						}
					}
				}
				JOINT HairF
				{
					OFFSET -0.864800 17.612701 -11.592200
					CHANNELS 3 Xrotation Yrotation Zrotation
					JOINT HairF1
					{
						OFFSET 0.000000 -14.087097 -2.127501
						CHANNELS 3 Xrotation Yrotation Zrotation
						End Site
						{
							OFFSET 0.000000 14.246841 0.000000
						}
					}
				}
				JOINT HairG
				{
					OFFSET -8.087700 17.612701 -11.592200
					CHANNELS 3 Xrotation Yrotation Zrotation
					JOINT HairG1
					{
						OFFSET -0.293600 -6.081398 -0.910100
						CHANNELS 3 Xrotation Yrotation Zrotation
						End Site
						{
							OFFSET 0.000000 6.156120 0.000000
						}
					}
				}
			}
		}
	}
	JOINT Pouch
	{
		OFFSET 0.000000 4.394501 10.847300
		CHANNELS 3 Xrotation Yrotation Zrotation
		End Site
		{
			OFFSET 0.000000 21.880577 0.000000
		}
	}
	JOINT Bag
	{
		OFFSET -13.229000 4.813004 -0.593300
		CHANNELS 3 Xrotation Yrotation Zrotation
		End Site
		{
			OFFSET 0.000000 21.880577 0.000000
		}
	}
	JOINT OccupyGuyFacialAnim_Joint
	{
		OFFSET 1.000000 -70.206398 -1.655000
		CHANNELS 3 Xrotation Yrotation Zrotation
		End Site
		{
			OFFSET 0.000000 21.880577 0.000000
		}
	}
}
MOTION
Frames: 4
Frame Time: 0.033333
0.599510 69.149384 0.873888 -21.883521 -3.536935 -1.307593 -0.000000 -0.000000 0.000000 5.889464 14.086784 11.621348 30.852135 9.790718 0.343832 -13.564704 1.261873 -8.089597 -0.000000 0.000001 -0.000000 0.000001 -0.000000 0.000000 4.649020 -13.719844 -11.181001 29.410976 -4.426407 -0.234743 -11.971834 -0.995485 7.759967 -0.000000 0.000000 -0.000000 -0.000002 0.000002 0.000000 9.694823 -4.670600 -0.840604 3.032327 -2.332410 -0.147718 3.042874 -2.322513 -0.110613 1.250506 0.573138 -1.077149 -10.439457 0.993471 3.526585 -0.000001 0.000000 0.000000 -0.000001 0.000000 0.000000 -0.000001 0.000000 0.000000 -0.000001 0.000000 -0.000000 -0.000001 -0.000000 -0.000000 -0.000001 0.000000 -0.000000 -0.000001 -0.000000 -0.000000 -0.000001 0.000000 0.000000 -0.000001 0.000000 0.000000 0.458088 -15.647827 -10.892879 -19.928270 1.702286 -37.647535 -0.000015 -63.387598 -0.000017 -41.613016 -12.034308 -8.638904 -22.783325 -14.798044 12.273460 3.014416 10.060502 14.894081 -0.000002 -0.000000 -0.000001 1.994290 -2.897579 26.330702 3.265001 5.250316 -63.730241 -0.000002 0.000003 0.000002 -0.926967 3.866255 21.146025 2.974884 5.097470 -60.513803 -0.000001 -0.000000 -0.000003 -6.313698 13.401033 28.235997 3.734312 5.455986 -68.757308 -0.000000 0.000001 -0.000006 -10.367022 21.359000 29.164826 0.276782 1.781097 -17.664635 -0.000001 -0.000001 0.000001 0.000001 -0.000001 0.000001 0.095439 15.179530 14.450722 -11.296028 -7.294575 61.859732 0.000002 37.863003 -0.000008 -2.132341 -4.386853 24.110237 -20.073110 16.089491 -24.921335 8.516204 -40.488709 -1.635162 0.000002 -0.000002 0.000003 1.349512 -5.012429 38.549721 3.100483 -4.389824 70.453026 -0.000000 0.000001 -0.000001 3.035784 -6.623418 69.792519 0.642370 -2.362169 30.423015 0.000002 -0.000002 0.000001 6.084488 -7.237255 80.209090 0.322794 -1.705297 21.436356 0.000001 -0.000000 -0.000002 1.665431 -22.402771 96.810883 1.111552 -3.021506 40.387704 -0.000002 0.000003 -0.000003 0.000001 0.000001 0.000002 -0.000000 -0.000001 -0.000000 -0.000000 -0.000001 0.000000 -0.000000 -0.000001 0.000000 -0.000000 -0.000001 0.000000 -0.000000 -0.000001 -0.000000 -0.000000 -0.000001 -0.000000 -0.000000 -0.000001 0.000000 -0.000000 -0.000001 0.000000 -0.000000 -0.000001 -0.000000 -0.000000 -0.000001 -0.000000 -0.000000 -0.000000 0.000000 -0.000000 -0.000000 0.000000 -0.000000 -0.000000 0.000000 
0.600106 69.114326 0.834938 -21.832508 -3.640667 -1.286729 0.000000 0.000000 -0.000000 5.726335 14.089736 11.593899 31.051686 9.790426 0.346946 -13.629516 1.343238 -8.099257 -0.000000 0.000001 0.000000 0.000001 0.000001 0.000000 4.380998 -13.649067 -11.270548 29.690467 -4.344085 -0.230479 -12.062083 -0.993207 7.746133 -0.000000 -0.000000 0.000000 0.000000 -0.000000 -0.000001 9.671684 -4.653743 -0.824517 3.040223 -2.325391 -0.136586 3.050705 -2.315344 -0.099848 1.263495 0.566662 -1.069492 -10.504066 0.927003 3.567544 -0.000002 -0.000000 0.000000 -0.000002 -0.000000 0.000000 -0.000002 -0.000000 0.000000 -0.000002 -0.000000 -0.000000 -0.000000 -0.000000 0.000000 -0.000002 -0.000000 -0.000000 -0.000000 -0.000000 0.000000 -0.000002 -0.000000 0.000000 -0.000002 -0.000000 0.000000 0.459194 -15.652070 -10.882411 -19.942363 1.638773 -37.683127 -0.000078 -63.272632 -0.000080 -41.648574 -12.088018 -8.675893 -22.783331 -14.798042 12.273461 3.053177 10.222601 14.860572 0.000001 0.000001 -0.000001 1.991970 -2.902278 26.249571 3.264963 5.250286 -63.729715 0.000001 0.000001 0.000002 -0.925109 3.874792 21.074836 2.974884 5.097468 -60.513803 -0.000000 -0.000000 -0.000001 -6.306244 13.403958 28.205691 3.736209 5.456721 -68.777157 -0.000001 -0.000000 0.000004 -10.379905 21.373562 29.179002 0.276471 1.780117 -17.654724 0.000000 -0.000002 0.000003 0.000005 -0.000001 -0.000000 0.093091 15.187984 14.470796 -11.274191 -7.394081 61.830643 -0.000010 37.985557 0.000008 -2.074275 -4.458049 24.111502 -20.073108 16.089487 -24.921342 8.662790 -40.726611 -1.506076 0.000002 -0.000001 -0.000000 1.212110 -5.107289 38.521044 3.100488 -4.389825 70.453019 -0.000002 0.000000 0.000004 3.028171 -6.620875 69.948288 0.642386 -2.362157 30.422988 0.000006 0.000000 0.000001 6.062223 -7.225199 80.424132 0.322868 -1.705434 21.438156 0.000006 -0.000001 -0.000000 1.711818 -22.404426 96.987259 1.111584 -3.021534 40.388203 0.000001 0.000002 -0.000001 -0.000001 -0.000002 0.000000 -0.000000 -0.000001 -0.000000 -0.000001 -0.000001 -0.000000 -0.000000 -0.000001 -0.000000 -0.000000 -0.000001 -0.000000 -0.000000 -0.000001 -0.000000 -0.000001 -0.000001 -0.000000 -0.000000 -0.000001 -0.000000 -0.000000 -0.000001 -0.000000 -0.000000 -0.000001 -0.000000 -0.000001 -0.000001 -0.000000 0.000000 0.000000 -0.000000 0.000000 0.000000 -0.000000 0.000000 0.000000 -0.000000 
0.597718 69.061203 0.816189 -21.976723 -3.691779 -1.290723 0.000002 -0.000000 -0.000000 5.679050 14.159646 11.652371 31.395900 9.789157 0.345195 -13.792750 1.293731 -8.130213 -0.000000 -0.000000 -0.000000 0.000001 -0.000001 -0.000000 4.290785 -13.595976 -11.350418 30.090559 -4.283272 -0.227540 -12.244436 -0.994362 7.745143 0.000000 -0.000000 -0.000000 -0.000001 0.000001 0.000001 9.776127 -4.646040 -0.801163 3.090891 -2.322937 -0.126740 3.101325 -2.312646 -0.089897 1.287834 0.564680 -1.069038 -10.463166 0.906138 3.566705 -0.000001 -0.000000 -0.000000 -0.000001 -0.000000 -0.000000 -0.000001 -0.000000 0.000000 -0.000001 -0.000000 -0.000000 0.000001 -0.000000 -0.000000 -0.000001 -0.000000 -0.000000 0.000001 -0.000000 -0.000000 -0.000001 -0.000000 -0.000000 -0.000001 -0.000000 -0.000000 0.458187 -15.656083 -10.891573 -20.000136 1.712088 -37.644652 0.000002 -63.488357 0.000006 -41.670083 -12.082664 -8.648334 -22.783325 -14.798044 12.273460 3.082398 10.343874 14.835314 0.000001 0.000001 -0.000001 2.001286 -2.912470 26.323050 3.264946 5.250285 -63.729435 0.000000 0.000001 0.000003 -0.927254 3.864993 21.156555 2.974883 5.097472 -60.513796 -0.000001 0.000001 0.000004 -6.313383 13.390795 28.251763 3.743839 5.459689 -68.857411 -0.000000 0.000000 0.000000 -10.394026 21.381839 29.202221 0.276228 1.779370 -17.646849 -0.000001 -0.000000 0.000001 0.000003 -0.000000 0.000000 0.090968 15.194813 14.489271 -11.294000 -7.476826 61.793254 -0.000002 38.236277 -0.000002 -2.040456 -4.489573 24.106750 -20.073105 16.089486 -24.921340 8.561253 -40.562072 -1.595491 -0.000001 -0.000001 -0.000000 1.236089 -5.117366 38.511021 3.100485 -4.389823 70.453019 0.000001 0.000001 -0.000001 3.034496 -6.623094 69.892458 0.642393 -2.362160 30.423012 0.000002 -0.000001 -0.000003 6.055967 -7.224505 80.414242 0.322822 -1.705350 21.437044 0.000003 -0.000001 -0.000000 1.726590 -22.413327 96.972355 1.111549 -3.021490 40.387513 0.000000 -0.000000 -0.000001 -0.000000 -0.000001 0.000001 -0.000000 0.000001 0.000000 -0.000000 0.000000 0.000000 -0.000000 0.000001 0.000000 -0.000000 0.000001 0.000000 -0.000000 0.000001 0.000000 -0.000000 0.000000 0.000000 -0.000000 0.000001 0.000000 -0.000000 0.000001 0.000000 -0.000000 0.000001 0.000000 -0.000000 0.000000 0.000000 0.000002 -0.000000 -0.000000 0.000002 -0.000000 -0.000000 0.000002 -0.000000 -0.000000 
0.594475 69.002174 0.811911 -22.200816 -3.687758 -1.289738 0.000001 -0.000000 -0.000000 5.683900 14.263439 11.745628 31.784285 9.718094 0.341077 -13.993124 1.215463 -8.149898 0.000000 0.000000 -0.000000 -0.000001 0.000001 0.000000 4.299326 -13.543953 -11.423218 30.521957 -4.283226 -0.228242 -12.463147 -0.999123 7.771831 0.000000 0.000002 -0.000000 0.000001 0.000000 -0.000000 9.908530 -4.659112 -0.782435 3.153513 -2.330665 -0.117575 3.163997 -2.320025 -0.080441 1.325009 0.567663 -1.070158 -10.303357 0.937877 3.540463 -0.000001 -0.000000 0.000000 -0.000001 -0.000000 0.000000 -0.000001 -0.000000 0.000000 -0.000001 -0.000000 -0.000000 0.000000 0.000001 0.000000 -0.000001 -0.000000 -0.000000 0.000000 0.000001 0.000000 -0.000001 -0.000000 0.000000 -0.000001 -0.000000 0.000000 0.453526 -15.649992 -10.935360 -20.090949 1.873287 -37.569551 -0.000060 -63.828343 -0.000083 -41.651422 -12.027546 -8.608379 -22.783322 -14.798044 12.273465 3.102792 10.427862 14.817739 -0.000000 0.000002 -0.000001 1.989658 -2.901106 26.219295 3.264951 5.250276 -63.729667 0.000000 0.000002 -0.000002 -0.924248 3.878665 21.042449 2.974885 5.097469 -60.513803 0.000001 0.000001 0.000001 -6.298643 13.401197 28.184204 3.737307 5.457163 -68.788768 0.000001 0.000000 -0.000006 -10.362272 21.387452 29.125631 0.276477 1.780174 -17.655047 -0.000000 0.000000 0.000001 -0.000002 0.000000 0.000000 0.089095 15.183944 14.511760 -11.372594 -7.524784 61.765606 -0.000016 38.459620 0.000024 -1.967081 -4.497898 24.123772 -20.073106 16.089480 -24.921337 8.503817 -40.468669 -1.645970 -0.000000 -0.000001 -0.000000 1.264378 -5.097047 38.517370 3.100488 -4.389820 70.453019 -0.000001 0.000002 0.000001 3.032923 -6.622545 69.909274 0.642344 -2.362087 30.421997 0.000002 0.000000 -0.000002 6.051055 -7.227106 80.324124 0.322796 -1.705304 21.436409 0.000004 0.000000 -0.000003 1.719630 -22.407735 96.991364 1.111566 -3.021522 40.387977 -0.000001 0.000000 -0.000003 -0.000000 -0.000004 0.000000 -0.000000 -0.000000 -0.000000 -0.000000 -0.000000 -0.000000 -0.000000 -0.000000 -0.000000 -0.000000 -0.000000 -0.000000 -0.000000 -0.000000 -0.000000 -0.000000 -0.000000 -0.000000 -0.000000 -0.000000 -0.000000 -0.000000 -0.000000 -0.000000 -0.000000 -0.000000 -0.000000 -0.000000 -0.000000 -0.000000 0.000001 -0.000000 -0.000000 0.000001 -0.000000 -0.000000 0.000001 -0.000000 -0.000000 
